<mxfile host="app.diagrams.net" modified="2023-03-10T11:18:07.359Z" agent="5.0 (Windows NT 10.0; Win64; x64) AppleWebKit/537.36 (KHTML, like Gecko) Chrome/110.0.0.0 Safari/537.36" etag="2PFXkP8iTVxpLhLqBP8J" version="21.0.6" type="github">
  <diagram id="R2lEEEUBdFMjLlhIrx00" name="Page-1">
    <mxGraphModel dx="721" dy="1048" grid="1" gridSize="10" guides="1" tooltips="1" connect="1" arrows="1" fold="1" page="1" pageScale="1" pageWidth="850" pageHeight="1100" math="0" shadow="0" extFonts="Permanent Marker^https://fonts.googleapis.com/css?family=Permanent+Marker">
      <root>
        <mxCell id="0" />
        <mxCell id="1" parent="0" />
        <mxCell id="ySw9hygXBKQ1HXh7yFQN-8" style="rounded=0;orthogonalLoop=1;jettySize=auto;html=1;exitX=0;exitY=1;exitDx=0;exitDy=0;strokeColor=default;endArrow=none;endFill=0;startArrow=none;startFill=0;" edge="1" parent="1" source="ySw9hygXBKQ1HXh7yFQN-1" target="ySw9hygXBKQ1HXh7yFQN-7">
          <mxGeometry relative="1" as="geometry" />
        </mxCell>
        <mxCell id="ySw9hygXBKQ1HXh7yFQN-1" value="Escola" style="whiteSpace=wrap;html=1;align=center;" vertex="1" parent="1">
          <mxGeometry x="310" y="180" width="100" height="40" as="geometry" />
        </mxCell>
        <mxCell id="ySw9hygXBKQ1HXh7yFQN-2" value="Turma" style="whiteSpace=wrap;html=1;align=center;" vertex="1" parent="1">
          <mxGeometry x="80" y="380" width="100" height="40" as="geometry" />
        </mxCell>
        <mxCell id="ySw9hygXBKQ1HXh7yFQN-3" value="Professor" style="whiteSpace=wrap;html=1;align=center;" vertex="1" parent="1">
          <mxGeometry x="540" y="380" width="100" height="40" as="geometry" />
        </mxCell>
        <mxCell id="ySw9hygXBKQ1HXh7yFQN-4" value="Sala" style="whiteSpace=wrap;html=1;align=center;" vertex="1" parent="1">
          <mxGeometry x="190" y="600" width="100" height="40" as="geometry" />
        </mxCell>
        <mxCell id="ySw9hygXBKQ1HXh7yFQN-6" value="Aula" style="whiteSpace=wrap;html=1;align=center;" vertex="1" parent="1">
          <mxGeometry x="470" y="600" width="100" height="40" as="geometry" />
        </mxCell>
        <mxCell id="ySw9hygXBKQ1HXh7yFQN-9" style="rounded=0;orthogonalLoop=1;jettySize=auto;html=1;exitX=0;exitY=1;exitDx=0;exitDy=0;entryX=0.923;entryY=0;entryDx=0;entryDy=0;entryPerimeter=0;" edge="1" parent="1" source="ySw9hygXBKQ1HXh7yFQN-7" target="ySw9hygXBKQ1HXh7yFQN-2">
          <mxGeometry relative="1" as="geometry" />
        </mxCell>
        <mxCell id="ySw9hygXBKQ1HXh7yFQN-7" value="Possui" style="shape=rhombus;perimeter=rhombusPerimeter;whiteSpace=wrap;html=1;align=center;" vertex="1" parent="1">
          <mxGeometry x="170" y="260" width="120" height="60" as="geometry" />
        </mxCell>
      </root>
    </mxGraphModel>
  </diagram>
</mxfile>
